<svg width="90" height="57" viewBox="0 0 90 57" fill="none" xmlns="http://www.w3.org/2000/svg">
<rect width="90" height="57" rx="16" fill="white"/>
<path d="M56.7425 42.125C55.29 44.295 53.75 46.4125 51.405 46.4475C49.06 46.5 48.3075 45.065 45.6475 45.065C42.97 45.065 42.1475 46.4125 39.925 46.5C37.6325 46.5875 35.9 44.19 34.43 42.0725C31.4375 37.75 29.145 29.7875 32.225 24.4325C33.7475 21.7725 36.4775 20.0925 39.435 20.04C41.675 20.005 43.81 21.5625 45.1925 21.5625C46.5575 21.5625 49.1475 19.69 51.86 19.97C52.9975 20.0225 56.1825 20.425 58.23 23.435C58.0725 23.54 54.4325 25.675 54.4675 30.1025C54.52 35.3875 59.105 37.155 59.1575 37.1725C59.105 37.295 58.4225 39.6925 56.7425 42.125ZM46.75 14.125C48.0275 12.6725 50.145 11.57 51.895 11.5C52.1225 13.5475 51.3 15.6125 50.075 17.0825C48.8675 18.57 46.8725 19.725 44.9125 19.5675C44.65 17.555 45.63 15.455 46.75 14.125Z" fill="black"/>
</svg>
