<svg width="90" height="57" viewBox="0 0 90 57" fill="none" xmlns="http://www.w3.org/2000/svg">
<rect width="90" height="57" rx="16" fill="white"/>
<g clip-path="url(#clip0_181_2771)">
<path d="M63 29C63 19.0589 54.9411 11 45 11C35.0589 11 27 19.0589 27 29C27 37.9842 33.5824 45.431 42.1875 46.7813V34.2031H37.6172V29H42.1875V25.0344C42.1875 20.5231 44.8748 18.0312 48.9864 18.0312C50.9558 18.0312 53.0156 18.3828 53.0156 18.3828V22.8125H50.7459C48.5099 22.8125 47.8125 24.2 47.8125 25.6236V29H52.8047L52.0066 34.2031H47.8125V46.7813C56.4176 45.431 63 37.9844 63 29Z" fill="#1877F2"/>
<path d="M52.0066 34.2031L52.8047 29H47.8125V25.6236C47.8125 24.1999 48.5099 22.8125 50.7459 22.8125H53.0156V18.3828C53.0156 18.3828 50.9558 18.0312 48.9863 18.0312C44.8748 18.0312 42.1875 20.5231 42.1875 25.0344V29H37.6172V34.2031H42.1875V46.7813C43.1179 46.9271 44.0582 47.0002 45 47C45.9418 47.0003 46.8821 46.9272 47.8125 46.7813V34.2031H52.0066Z" fill="white"/>
</g>
<defs>
<clipPath id="clip0_181_2771">
<rect width="36" height="36" fill="white" transform="translate(27 11)"/>
</clipPath>
</defs>
</svg>
