<svg width="90" height="57" viewBox="0 0 90 57" fill="none" xmlns="http://www.w3.org/2000/svg">
<rect width="90" height="57" rx="16" fill="white"/>
<g clip-path="url(#clip0_181_2776)">
<path d="M40.1475 14.0525C36.9502 15.1617 34.1928 17.2669 32.2805 20.059C30.3681 22.8511 29.4015 26.1829 29.5226 29.5649C29.6437 32.947 30.8462 36.201 32.9534 38.8492C35.0606 41.4973 37.9615 43.3999 41.23 44.2775C43.8798 44.9612 46.656 44.9913 49.32 44.365C51.7333 43.8229 53.9644 42.6634 55.795 41C57.7002 39.2159 59.0831 36.9462 59.795 34.435C60.5685 31.7041 60.7062 28.8323 60.1975 26.04H45.3175V32.2125H53.935C53.7628 33.197 53.3937 34.1366 52.8499 34.9751C52.306 35.8136 51.5986 36.5338 50.77 37.0925C49.7178 37.7888 48.5316 38.2572 47.2875 38.4675C46.0399 38.6995 44.7601 38.6995 43.5125 38.4675C42.2479 38.2063 41.0516 37.6844 40 36.935C38.3104 35.739 37.0417 34.0398 36.375 32.08C35.6972 30.0835 35.6972 27.919 36.375 25.9225C36.8496 24.523 37.6341 23.2488 38.67 22.195C39.8555 20.9669 41.3563 20.089 43.0079 19.6577C44.6594 19.2264 46.3979 19.2583 48.0325 19.75C49.3095 20.1418 50.4772 20.8267 51.4425 21.75C52.4142 20.7833 53.3842 19.8142 54.3525 18.8425C54.8525 18.32 55.3975 17.8225 55.89 17.2875C54.4163 15.9163 52.6866 14.8493 50.8 14.1475C47.3642 12.9 43.6049 12.8664 40.1475 14.0525Z" fill="white"/>
<path d="M40.1474 14.0525C43.6046 12.8656 47.3639 12.8983 50.7999 14.145C52.6869 14.8515 54.4158 15.9237 55.8874 17.3C55.3874 17.835 54.8599 18.335 54.3499 18.855C53.3799 19.8233 52.4108 20.7883 51.4424 21.75C50.4772 20.8267 49.3094 20.1418 48.0324 19.75C46.3984 19.2566 44.66 19.2228 43.008 19.6523C41.356 20.0819 39.8542 20.9581 38.6674 22.185C37.6315 23.2388 36.847 24.513 36.3724 25.9125L31.1899 21.9C33.045 18.2214 36.2568 15.4075 40.1474 14.0525Z" fill="#E33629"/>
<path d="M29.815 25.8749C30.0933 24.4943 30.5558 23.1574 31.19 21.8999L36.3725 25.9224C35.6947 27.9189 35.6947 30.0834 36.3725 32.0799C34.6458 33.4132 32.9183 34.7532 31.19 36.0999C29.6029 32.9407 29.1188 29.3412 29.815 25.8749Z" fill="#F8BD00"/>
<path d="M45.3175 26.0376H60.1975C60.7062 28.8299 60.5686 31.7017 59.795 34.4326C59.0831 36.9438 57.7002 39.2135 55.795 40.9976C54.1225 39.6926 52.4425 38.3976 50.77 37.0926C51.5992 36.5333 52.3069 35.8123 52.8508 34.9729C53.3946 34.1335 53.7634 33.193 53.935 32.2076H45.3175C45.315 30.1526 45.3175 28.0951 45.3175 26.0376Z" fill="#587DBD"/>
<path d="M31.1875 36.1001C32.9158 34.7667 34.6433 33.4267 36.37 32.0801C37.038 34.0406 38.3085 35.7398 40 36.9351C41.0549 37.681 42.2537 38.1987 43.52 38.4551C44.7676 38.6871 46.0474 38.6871 47.295 38.4551C48.5391 38.2448 49.7253 37.7764 50.7775 37.0801C52.45 38.3851 54.13 39.6801 55.8025 40.9851C53.9722 42.6494 51.741 43.8098 49.3275 44.3526C46.6635 44.9788 43.8873 44.9488 41.2375 44.2651C39.1418 43.7055 37.1842 42.7191 35.4875 41.3676C33.6918 39.9416 32.2251 38.1449 31.1875 36.1001Z" fill="#319F43"/>
</g>
<defs>
<clipPath id="clip0_181_2776">
<rect width="32" height="32" fill="white" transform="translate(29 13)"/>
</clipPath>
</defs>
</svg>
